{"glyphs":{":":{"x_min":0,"x_max":296,"ha":296,"o":"m 98 331 q 98 356 115 373 q 131 389 156 389 q 181 389 198 372 q 215 355 215 331 q 215 307 198 290 q 181 273 156 273 q 131 273 115 290 q 98 306 98 331 z m 20 47 q 20 72 37 88 q 53 105 78 105 q 103 105 120 88 q 137 72 137 47 q 137 22 120 5 q 103 -12 78 -12 q 53 -12 37 5 q 20 22 20 47 z"},"$":{"x_min":0,"x_max":500,"ha":500,"o":"m 244 32 q 302 44 338 83 q 373 122 373 171 q 373 203 356 226 q 340 249 306 265 z m 139 29 q 152 26 165 24 q 178 23 192 23 q 202 23 207 23 q 211 23 216 24 l 281 275 q 265 281 241 289 q 217 297 212 299 z m 214 401 l 265 588 q 219 579 187 546 q 155 513 155 477 q 155 453 170 434 q 185 415 214 401 z m 237 391 l 306 363 l 366 592 q 357 594 346 596 q 335 597 322 597 q 310 597 304 597 q 298 596 293 595 z m 191 313 q 150 335 130 367 q 110 399 110 443 q 110 506 155 554 q 201 603 273 614 l 285 662 l 310 662 l 300 618 q 304 619 308 619 q 312 619 321 619 q 332 619 344 618 q 357 617 374 614 l 384 662 l 409 662 l 395 607 q 433 592 456 563 q 478 535 478 503 q 478 480 466 466 q 453 451 434 451 q 415 451 404 461 q 392 471 392 488 q 392 514 415 525 q 437 536 437 539 q 437 550 424 562 q 410 575 388 584 l 329 351 q 376 327 401 289 q 426 250 426 202 q 426 125 373 70 q 319 14 236 5 l 212 -86 l 187 -86 l 209 3 q 205 2 200 2 q 195 2 186 2 q 173 2 160 3 q 147 5 134 8 l 109 -86 l 84 -86 l 111 17 q 66 30 42 62 q 17 93 17 138 q 17 172 33 192 q 49 212 75 212 q 95 212 106 202 q 117 191 117 173 q 117 157 107 146 q 98 135 79 131 q 75 130 67 129 q 48 126 48 112 q 48 90 68 70 q 87 49 118 40 z"},"?":{"x_min":0,"x_max":498,"ha":498,"o":"m 146 184 q 146 246 163 289 q 181 332 218 362 q 243 381 300 409 q 323 420 334 426 q 369 445 386 470 q 404 496 404 529 q 404 580 368 614 q 332 647 277 647 q 242 647 213 630 q 183 613 183 599 q 183 595 201 580 q 219 564 219 545 q 219 528 208 518 q 197 507 179 507 q 160 507 148 519 q 137 532 137 553 q 137 598 180 632 q 222 666 282 666 q 350 666 392 622 q 435 577 435 506 q 435 442 401 400 q 367 357 250 302 q 213 284 193 255 q 173 227 168 184 z m 76 40 q 76 64 91 80 q 105 95 128 95 q 153 95 167 81 q 182 66 182 41 q 182 18 167 2 q 152 -13 128 -13 q 106 -13 91 2 q 76 17 76 40 z"},"<":{"x_min":0,"x_max":833,"ha":833,"o":"m 704 559 l 704 497 l 216 298 l 704 100 l 704 37 l 129 273 l 129 323 z"},"'":{"x_min":0,"x_max":170,"ha":170,"o":"m 93 422 l 77 422 l 45 645 q 44 649 44 653 q 44 657 44 664 q 44 688 54 701 q 65 714 85 714 q 105 714 116 701 q 127 688 127 665 q 127 661 125 648 q 125 646 125 645 z"},"=":{"x_min":0,"x_max":833,"ha":833,"o":"m 124 233 l 709 233 l 709 176 l 124 176 z m 124 420 l 709 420 l 709 363 l 124 363 z"},"a":{"x_min":0,"x_max":494,"ha":494,"o":"m 237 368 q 208 368 185 349 q 162 330 137 287 q 109 237 92 181 q 75 125 75 85 q 75 50 91 31 q 107 13 137 13 q 170 13 197 34 q 224 56 246 100 q 254 115 265 147 q 275 179 286 219 q 292 243 296 263 q 299 284 299 299 q 299 333 283 351 q 268 368 237 368 z m 245 56 q 222 23 191 5 q 160 -12 124 -12 q 70 -12 35 28 q 1 67 1 130 q 1 174 20 218 q 40 262 77 304 q 114 345 153 367 q 193 389 231 389 q 267 389 289 373 q 311 357 319 324 l 336 380 l 406 380 l 329 115 q 320 83 316 68 q 313 53 313 45 q 313 36 318 30 q 323 24 331 24 q 355 24 381 55 q 407 86 428 141 l 449 134 q 423 63 386 25 q 350 -12 306 -12 q 275 -12 260 5 q 246 21 245 56 z"},"L":{"x_min":0,"x_max":546,"ha":546,"o":"m -26 0 l -26 25 l 28 25 l 187 627 l 116 627 l 116 653 l 356 653 l 356 627 l 283 627 l 123 25 l 257 25 q 320 25 365 62 q 409 99 449 187 l 477 187 l 422 0 z"},"3":{"x_min":0,"x_max":500,"ha":500,"o":"m 257 339 l 257 333 q 328 321 367 283 q 406 245 406 187 q 406 103 334 44 q 263 -14 156 -14 q 81 -14 36 17 q -9 48 -9 97 q -9 125 7 144 q 22 162 46 162 q 66 162 78 151 q 90 139 90 121 q 90 107 84 97 q 78 87 65 80 q 57 75 43 72 q 30 69 30 65 q 30 45 64 27 q 99 9 145 9 q 222 9 270 67 q 319 125 319 215 q 319 268 285 297 q 250 325 186 325 q 180 325 167 324 q 153 323 145 323 q 137 323 131 328 q 125 333 125 339 q 125 345 131 350 q 137 355 145 355 q 146 355 149 354 q 168 353 188 353 q 269 353 317 399 q 366 445 366 521 q 366 567 344 589 q 321 612 275 612 q 242 612 216 601 q 190 590 190 579 q 190 577 198 563 q 206 550 206 535 q 206 516 196 505 q 186 494 167 494 q 149 494 138 505 q 127 516 127 534 q 127 574 172 602 q 217 631 283 631 q 355 631 402 595 q 448 559 448 504 q 448 445 396 400 q 343 354 257 339 z"},";":{"x_min":0,"x_max":296,"ha":296,"o":"m 17 -132 q 75 -101 106 -64 q 138 -27 138 9 q 138 20 135 26 q 131 32 125 32 q 120 32 105 10 q 91 -11 70 -11 q 50 -11 38 2 q 26 16 26 38 q 26 63 43 79 q 60 95 87 95 q 122 95 144 73 q 166 50 166 14 q 166 -33 130 -74 q 95 -116 26 -149 z m 90 330 q 90 355 107 372 q 124 389 148 389 q 173 389 190 372 q 207 355 207 330 q 207 306 190 289 q 172 272 148 272 q 125 272 107 289 q 90 307 90 330 z"},"J":{"x_min":0,"x_max":399,"ha":399,"o":"m 126 67 l 256 627 l 171 627 l 171 653 l 409 653 l 409 627 l 351 627 l 230 108 q 205 1 155 -52 q 105 -106 32 -106 q -9 -106 -36 -82 q -62 -59 -62 -22 q -62 4 -46 21 q -31 39 -8 39 q 14 39 27 25 q 41 12 41 -10 q 41 -29 26 -47 q 11 -65 11 -68 q 11 -73 18 -77 q 24 -81 34 -81 q 63 -81 86 -44 q 108 -8 126 67 z"},"V":{"x_min":0,"x_max":547,"ha":547,"o":"m 156 -16 l 117 627 l 57 627 l 57 653 l 279 653 l 279 627 l 208 627 l 238 134 l 516 627 l 445 627 l 445 653 l 593 653 l 593 627 l 547 627 l 183 -16 z"},"\"":{"x_min":0,"x_max":331,"ha":331,"o":"m 253 422 l 238 422 l 206 645 q 206 646 206 648 q 204 659 204 664 q 204 688 215 701 q 226 714 246 714 q 266 714 276 701 q 287 688 287 665 q 287 658 287 654 q 287 649 286 645 z m 93 422 l 77 422 l 46 645 q 45 653 44 658 q 44 662 44 665 q 44 688 55 701 q 65 714 85 714 q 105 714 116 701 q 127 688 127 665 q 127 661 125 648 q 125 646 125 645 z"},"7":{"x_min":0,"x_max":500,"ha":500,"o":"m 440 548 l 188 548 q 166 548 153 542 q 140 535 130 520 l 102 478 l 75 478 l 159 620 l 510 620 l 510 597 l 322 346 q 275 284 248 221 q 221 157 221 112 q 221 104 222 89 q 222 75 222 69 q 222 29 209 8 q 196 -13 171 -13 q 146 -13 131 5 q 116 22 116 52 q 116 86 153 156 q 189 227 250 304 z"},"S":{"x_min":0,"x_max":491,"ha":491,"o":"m 29 186 l 54 180 l 54 166 q 54 96 92 52 q 130 8 189 8 q 258 8 303 51 q 348 93 348 158 q 348 180 342 198 q 335 217 322 231 q 301 254 249 283 q 228 294 218 300 q 155 339 126 381 q 98 423 98 476 q 98 556 151 612 q 204 667 281 667 q 313 667 343 656 q 373 645 406 620 l 446 650 l 464 650 l 424 482 l 399 486 q 400 495 401 499 q 401 502 401 505 q 401 570 367 606 q 334 643 275 643 q 222 643 186 610 q 150 576 150 528 q 150 493 173 467 q 196 440 270 400 q 362 350 391 310 q 420 270 420 210 q 420 116 354 49 q 288 -17 192 -17 q 152 -17 120 -4 q 87 8 59 35 l 6 -2 l -15 -2 z"},"}":{"x_min":0,"x_max":500,"ha":500,"o":"m 87 740 l 92 740 q 197 740 237 704 q 277 668 277 571 l 277 467 q 277 390 305 361 q 333 333 414 325 l 414 296 q 334 290 306 260 q 277 231 277 154 l 277 50 q 277 -47 237 -83 q 197 -119 92 -119 l 87 -119 l 87 -94 q 157 -93 182 -68 q 207 -42 207 34 l 207 104 q 207 214 237 255 q 267 295 347 310 q 267 325 237 365 q 207 406 207 516 l 207 586 q 207 662 182 688 q 156 714 87 715 z"},"Z":{"x_min":0,"x_max":601,"ha":601,"o":"m -15 0 l -15 23 l 467 627 l 337 627 q 272 627 235 597 q 197 567 167 492 l 134 492 l 178 653 l 590 653 l 590 631 l 108 25 l 226 25 q 321 25 368 58 q 415 90 460 183 l 491 183 l 438 0 z"},"x":{"x_min":0,"x_max":436,"ha":436,"o":"m 159 175 l 133 319 q 131 332 125 339 q 119 345 110 345 q 94 345 74 317 q 55 290 28 227 l 7 234 q 42 318 72 353 q 101 388 137 388 q 169 388 186 359 q 203 330 215 249 l 269 322 q 296 359 316 374 q 335 388 355 388 q 370 388 380 379 q 389 371 389 357 q 389 341 380 331 q 370 320 356 320 q 347 320 335 326 q 323 332 319 332 q 312 332 301 323 q 290 314 279 299 l 220 219 l 249 63 q 252 44 258 37 q 264 30 274 30 q 293 30 314 61 q 335 92 358 155 l 377 148 q 349 66 318 27 q 287 -12 249 -12 q 213 -12 195 17 q 177 47 164 146 l 106 65 q 80 28 52 8 q 25 -12 3 -12 q -16 -12 -27 -1 q -39 10 -39 27 q -39 43 -30 54 q -21 65 -6 65 q 9 65 23 52 q 38 39 43 39 q 51 39 61 48 q 71 57 87 79 z"},")":{"x_min":0,"x_max":312,"ha":312,"o":"m 106 667 q 158 584 184 494 q 211 404 211 315 q 211 160 135 29 q 60 -103 -89 -203 l -100 -187 q -38 -145 6 -91 q 50 -36 78 34 q 113 120 133 226 q 154 332 154 421 q 154 485 138 543 q 122 602 89 657 z"},"&":{"x_min":0,"x_max":711,"ha":711,"o":"m 391 54 q 343 17 298 0 q 252 -18 204 -18 q 125 -18 76 27 q 27 72 27 144 q 27 212 85 275 q 144 337 246 378 q 237 411 233 439 q 229 468 229 493 q 229 573 275 620 q 320 666 400 666 q 462 666 498 640 q 533 613 533 568 q 533 517 481 471 q 429 425 338 396 q 360 321 385 261 q 410 201 437 158 q 457 191 481 251 q 506 311 519 333 q 541 370 562 385 q 583 401 612 401 q 642 401 661 383 q 681 366 681 341 q 681 316 670 302 q 658 289 637 289 q 617 289 606 302 q 595 314 595 337 q 595 342 596 349 q 597 355 597 357 q 597 361 594 364 q 590 367 585 367 q 562 367 514 263 q 477 183 450 133 q 474 89 503 65 q 532 40 559 40 q 584 40 606 53 q 627 66 642 92 l 662 78 q 633 30 596 6 q 560 -18 516 -18 q 480 -18 448 0 q 417 19 391 54 z m 252 356 q 193 332 160 286 q 128 240 128 181 q 128 109 164 65 q 200 21 257 21 q 283 21 313 35 q 344 48 375 74 q 336 132 305 203 q 274 275 252 356 z m 332 416 q 393 444 426 485 q 459 526 459 572 q 459 606 442 625 q 426 643 395 643 q 355 643 333 617 q 311 590 311 542 q 311 519 316 489 q 321 458 332 416 z"},"_":{"x_min":0,"x_max":500,"ha":500,"o":"m 0 -178 l 500 -178 l 500 -236 l 0 -236 z"},"v":{"x_min":0,"x_max":382,"ha":382,"o":"m -15 237 l -32 245 q 9 326 41 357 q 73 389 112 389 q 138 389 152 377 q 166 366 166 344 q 166 334 164 323 q 162 312 158 299 l 93 82 q 89 66 87 57 q 85 48 85 43 q 85 29 94 21 q 103 13 119 13 q 145 13 174 32 q 203 52 230 88 q 264 132 287 194 q 310 255 310 290 q 310 300 307 306 q 304 313 298 315 q 278 323 269 333 q 259 343 259 356 q 259 371 268 379 q 277 388 292 388 q 313 388 325 370 q 337 352 337 318 q 337 264 312 195 q 288 126 249 73 q 220 33 182 10 q 144 -12 105 -12 q 63 -12 42 7 q 21 25 21 62 q 21 69 22 78 q 23 87 26 97 l 89 307 q 90 310 92 316 q 94 323 94 324 q 94 325 95 331 q 96 338 96 343 q 96 351 93 355 q 90 359 83 359 q 65 359 40 328 q 15 296 -15 237 z"},"O":{"x_min":0,"x_max":657,"ha":657,"o":"m 401 646 q 346 646 305 616 q 264 585 236 525 q 220 491 202 435 q 184 379 161 292 q 150 249 144 211 q 138 173 138 145 q 138 79 169 43 q 200 8 259 8 q 321 8 363 47 q 405 86 441 178 q 452 206 468 261 q 483 316 499 384 q 508 424 512 458 q 516 491 516 520 q 516 583 488 615 q 459 646 401 646 z m 44 230 q 44 304 74 381 q 104 459 159 528 q 216 599 276 634 q 336 668 403 668 q 500 668 557 605 q 614 542 614 434 q 614 363 590 290 q 565 217 519 148 q 466 70 396 26 q 326 -17 254 -17 q 161 -17 103 52 q 44 121 44 230 z"},"(":{"x_min":0,"x_max":312,"ha":312,"o":"m 154 -203 q 103 -120 76 -30 q 49 60 49 149 q 49 305 125 435 q 200 566 348 666 l 360 651 q 297 608 253 554 q 209 500 181 430 q 146 345 126 239 q 106 134 106 43 q 106 -22 122 -80 q 138 -138 170 -193 z"},"C":{"x_min":0,"x_max":602,"ha":602,"o":"m 483 187 l 512 179 l 457 0 l 443 0 l 420 36 q 384 10 345 -4 q 306 -17 266 -17 q 166 -17 104 52 q 41 122 41 234 q 41 307 71 385 q 101 464 154 531 q 208 599 268 633 q 329 668 394 668 q 436 668 470 656 q 504 644 532 620 l 565 646 l 587 646 l 548 475 l 523 475 q 522 557 490 600 q 458 643 398 643 q 350 643 312 612 q 273 582 239 516 q 192 428 167 336 q 142 243 142 162 q 142 90 174 52 q 206 13 266 13 q 326 13 382 58 q 438 103 483 187 z"},"W":{"x_min":0,"x_max":765,"ha":765,"o":"m 151 -16 l 116 627 l 59 627 l 59 653 l 610 653 l 610 627 l 555 627 l 444 432 l 457 138 l 725 627 l 656 627 l 656 653 l 808 653 l 808 627 l 756 627 l 406 -16 l 380 -16 l 361 303 l 177 -16 z m 233 134 l 358 355 l 345 627 l 209 627 z m 439 473 l 528 627 l 431 627 z"},"A":{"x_min":0,"x_max":547,"ha":547,"o":"m 147 252 l 312 252 l 300 529 z m -58 0 l -58 25 l -12 25 l 347 667 l 381 667 l 418 25 l 477 25 l 477 0 l 256 0 l 256 25 l 327 25 l 314 226 l 132 226 l 19 25 l 90 25 l 90 0 z"},"f":{"x_min":0,"x_max":266,"ha":266,"o":"m 93 357 l 13 357 l 13 380 l 100 380 q 139 522 195 592 q 251 662 327 662 q 362 662 382 646 q 402 630 402 604 q 402 584 392 573 q 383 562 366 562 q 346 562 335 572 q 324 581 324 598 q 324 609 329 618 q 333 626 333 627 q 333 633 329 636 q 324 639 315 639 q 271 639 241 586 q 211 533 174 380 l 263 380 l 263 357 l 168 357 l 122 184 q 59 -51 5 -132 q -49 -213 -130 -213 q -162 -213 -182 -197 q -202 -182 -202 -157 q -202 -138 -191 -127 q -181 -116 -162 -116 q -146 -116 -136 -125 q -126 -135 -126 -150 q -126 -159 -130 -169 q -135 -179 -135 -181 q -135 -186 -130 -188 q -125 -191 -116 -191 q -92 -191 -71 -174 q -49 -156 -32 -123 q -14 -88 26 82 q 65 251 93 357 z"},"Q":{"x_min":0,"x_max":657,"ha":657,"o":"m 400 645 q 346 645 305 615 q 264 584 236 524 q 220 489 203 437 q 186 384 164 298 q 151 246 145 207 q 138 168 138 141 q 138 77 170 42 q 201 7 259 7 q 320 7 363 46 q 405 85 441 177 q 476 267 496 360 q 516 454 516 519 q 516 582 487 614 q 458 645 400 645 z m 460 -191 l 460 -212 q 427 -215 409 -216 q 391 -217 379 -217 q 294 -217 246 -177 q 198 -138 198 -68 q 198 -56 200 -42 q 202 -27 205 -11 q 131 8 88 72 q 45 137 45 228 q 45 304 76 384 q 107 463 165 534 q 219 601 279 634 q 338 667 403 667 q 500 667 557 604 q 614 542 614 434 q 614 354 586 275 q 558 195 505 126 q 464 73 416 40 q 368 6 310 -9 q 306 -31 305 -45 q 303 -59 303 -69 q 303 -133 326 -163 q 349 -193 397 -193 q 409 -193 442 -192 q 454 -191 460 -191 z"},"w":{"x_min":0,"x_max":609,"ha":609,"o":"m 2 253 l -17 262 q 18 330 51 359 q 84 389 122 389 q 146 389 160 376 q 174 362 174 340 q 174 331 173 323 q 172 316 170 309 l 99 58 q 99 56 98 53 q 95 43 95 38 q 95 28 100 24 q 105 19 116 19 q 159 19 216 116 q 272 214 323 380 l 395 380 q 363 275 345 195 q 327 115 327 78 q 327 46 335 32 q 343 19 362 19 q 386 19 411 41 q 435 63 459 106 q 487 156 503 208 q 520 260 520 293 q 520 308 504 316 l 503 317 q 487 324 480 332 q 474 340 474 353 q 474 369 483 378 q 492 387 507 387 q 528 387 539 371 q 550 354 550 322 q 550 282 536 229 q 522 177 497 125 q 463 55 425 21 q 387 -12 340 -12 q 302 -12 281 12 q 259 37 259 81 q 259 97 262 119 q 266 141 274 181 q 220 70 180 29 q 139 -12 89 -12 q 60 -12 44 3 q 28 19 28 47 q 28 55 30 64 q 31 74 34 85 l 103 325 q 104 328 104 332 q 105 336 105 342 q 105 349 101 353 q 97 358 91 358 q 76 358 53 331 q 30 304 2 253 z"},"-":{"x_min":0,"x_max":329,"ha":329,"o":"m 6 162 l 24 220 l 258 220 l 240 162 z"},"E":{"x_min":0,"x_max":601,"ha":601,"o":"m -20 0 l -20 25 l 38 25 l 192 627 l 121 627 l 121 653 l 584 653 l 544 486 l 518 486 q 521 499 522 509 q 523 520 523 530 q 523 585 498 606 q 473 627 393 627 l 288 627 l 218 355 l 235 355 q 296 355 330 378 q 364 401 382 455 l 409 455 l 344 203 l 319 203 q 319 208 320 216 q 323 239 323 248 q 323 291 301 309 q 278 326 222 326 l 211 326 l 133 25 l 248 25 q 337 25 388 60 q 438 94 483 185 l 512 185 l 455 0 z"},"s":{"x_min":0,"x_max":329,"ha":329,"o":"m 92 -12 q 40 -12 6 12 q -28 36 -28 70 q -28 88 -18 99 q -7 110 10 110 q 28 110 38 100 q 49 90 49 74 q 49 62 42 50 q 34 38 34 35 q 34 24 50 16 q 66 9 92 9 q 127 9 151 29 q 174 50 174 81 q 174 100 164 117 q 154 134 116 173 l 110 179 q 51 238 51 284 q 51 332 83 360 q 116 389 170 389 q 213 389 239 373 q 265 357 265 331 q 265 314 256 304 q 247 294 231 294 q 215 294 205 303 q 196 312 196 328 q 196 332 198 340 q 201 349 201 352 q 201 360 191 365 q 181 371 167 371 q 137 371 121 357 q 105 343 105 317 q 105 304 117 288 q 129 271 163 241 q 210 200 224 176 q 239 151 239 123 q 239 66 196 27 q 154 -12 92 -12 z"},">":{"x_min":0,"x_max":833,"ha":833,"o":"m 129 559 l 704 323 l 704 273 l 129 37 l 129 100 l 617 298 l 129 497 z"},"l":{"x_min":0,"x_max":270,"ha":270,"o":"m 14 95 l 164 632 l 85 632 l 85 653 q 129 654 169 656 q 209 658 244 662 l 78 74 q 76 68 75 62 q 74 56 74 50 q 74 40 80 33 q 86 27 95 27 q 121 27 146 54 q 172 82 200 140 l 220 131 q 188 58 152 23 q 117 -12 74 -12 q 42 -12 23 4 q 5 20 5 47 q 5 54 7 66 q 10 78 14 95 z"},"8":{"x_min":0,"x_max":500,"ha":500,"o":"m 301 609 q 244 609 209 561 q 175 513 175 434 q 175 386 196 362 q 218 337 259 337 q 313 337 348 390 q 383 444 383 528 q 383 572 364 590 q 345 609 301 609 z m 224 309 q 167 309 129 249 q 90 189 90 99 q 90 56 116 33 q 142 11 192 11 q 262 11 302 63 q 342 115 342 207 q 342 261 314 285 q 286 309 224 309 z m 200 326 l 200 332 q 150 351 123 387 q 96 423 96 469 q 96 537 152 584 q 208 631 291 631 q 370 631 417 592 q 464 552 464 488 q 464 426 422 384 q 379 341 300 324 l 300 316 q 360 300 394 260 q 428 221 428 169 q 428 91 364 38 q 299 -14 200 -14 q 113 -14 60 29 q 6 72 6 141 q 6 209 57 258 q 108 307 200 326 z"},"\\":{"x_min":0,"x_max":272,"ha":272,"o":"m 133 -93 l 113 667 l 151 667 l 171 -93 z"},"e":{"x_min":0,"x_max":384,"ha":384,"o":"m 97 213 l 107 213 q 179 213 220 242 q 261 271 261 322 q 261 345 250 356 q 238 367 216 367 q 183 367 153 328 q 123 290 97 213 z m 89 189 q 82 162 78 140 q 74 118 74 101 q 74 58 95 35 q 117 12 157 12 q 195 12 229 38 q 262 63 285 109 l 306 97 q 281 45 240 16 q 199 -13 150 -13 q 84 -13 43 31 q 1 75 1 146 q 1 186 16 223 q 30 261 59 296 q 98 342 144 366 q 189 390 240 390 q 282 390 308 368 q 334 346 334 311 q 334 255 271 222 q 207 189 98 189 z"},"b":{"x_min":0,"x_max":440,"ha":440,"o":"m 89 139 q 83 121 81 104 q 78 86 78 74 q 78 44 95 28 q 113 11 144 11 q 177 11 201 30 q 225 48 245 90 q 271 141 287 202 q 303 263 303 301 q 303 334 286 352 q 268 369 235 369 q 193 369 165 339 q 136 309 119 246 z m 18 143 l 154 632 l 91 632 l 91 653 q 132 653 169 655 q 206 658 237 662 l 145 340 q 166 366 190 378 q 215 391 245 391 q 300 391 336 351 q 371 311 371 247 q 371 208 358 167 q 344 125 320 90 q 286 41 239 14 q 192 -12 140 -12 q 83 -12 48 18 q 12 49 12 98 q 12 110 14 122 q 15 134 18 143 z"},"%":{"x_min":0,"x_max":823,"ha":823,"o":"m 268 598 q 248 597 229 583 q 210 569 191 542 q 156 492 136 443 q 117 395 117 359 q 117 327 132 310 q 146 293 173 293 q 204 293 230 310 q 257 327 282 362 q 309 400 323 441 q 337 481 337 521 q 337 528 335 543 q 335 545 335 546 q 307 555 292 567 q 277 579 268 598 z m 192 -27 l 540 576 q 504 554 470 543 q 436 532 404 532 q 389 532 379 533 q 369 535 359 538 l 359 531 q 359 419 298 341 q 237 263 155 263 q 102 263 72 295 q 41 328 41 384 q 41 425 58 466 q 76 508 109 546 q 145 587 183 609 q 222 630 260 630 q 295 630 319 613 q 342 597 353 565 q 364 560 376 558 q 389 555 403 555 q 451 555 497 579 q 543 602 586 648 l 623 648 l 233 -27 z m 451 109 q 451 151 467 192 q 482 232 512 268 q 548 312 589 335 q 629 359 669 359 q 718 359 743 329 q 769 299 769 243 q 769 200 752 153 q 735 106 706 69 q 675 30 640 11 q 605 -8 566 -8 q 515 -8 483 24 q 451 57 451 109 z m 682 329 q 658 329 635 309 q 612 289 583 242 q 556 198 541 158 q 527 119 527 87 q 527 55 543 39 q 559 22 589 22 q 615 22 639 38 q 664 54 689 87 q 717 124 732 165 q 747 207 747 247 q 747 286 730 308 q 713 329 682 329 z"},"m":{"x_min":0,"x_max":712,"ha":712,"o":"m 1 0 l 94 359 l 20 359 l 20 380 q 60 380 99 382 q 137 384 175 389 l 150 297 q 185 344 220 366 q 256 389 295 389 q 335 389 356 370 q 378 350 378 314 q 378 307 378 303 q 377 299 377 296 q 409 343 445 366 q 480 389 522 389 q 562 389 584 371 q 607 353 607 321 q 607 312 606 301 q 604 291 602 281 l 539 60 q 537 52 536 47 q 535 42 535 38 q 535 32 540 27 q 545 23 553 23 q 578 23 602 51 q 626 80 652 138 l 670 130 q 646 58 610 22 q 574 -13 525 -13 q 498 -13 482 1 q 466 16 466 42 q 466 51 468 63 q 470 75 476 95 l 532 289 q 536 302 537 312 q 539 322 539 328 q 539 343 529 350 q 519 358 500 358 q 459 358 416 314 q 373 271 357 211 l 301 0 l 228 0 l 302 278 q 302 279 303 283 q 311 312 311 322 q 311 339 300 349 q 290 358 270 358 q 230 358 188 315 q 146 272 131 217 l 72 0 z"},"#":{"x_min":0,"x_max":769,"ha":769,"o":"m 342 424 l 293 284 l 434 284 l 484 424 z m 380 711 l 445 711 l 363 481 l 503 481 l 585 711 l 649 711 l 568 481 l 718 481 l 698 424 l 547 424 l 498 284 l 660 284 l 639 228 l 478 228 l 397 -1 l 332 -1 l 413 228 l 273 228 l 192 -1 l 128 -1 l 209 228 l 51 228 l 72 284 l 229 284 l 278 424 l 108 424 l 129 481 l 299 481 z"},",":{"x_min":0,"x_max":250,"ha":250,"o":"m 3 -132 q 61 -101 93 -64 q 124 -27 124 9 q 124 20 121 26 q 117 32 111 32 q 105 32 91 10 q 77 -11 56 -11 q 36 -11 24 2 q 12 16 12 38 q 12 63 29 79 q 46 95 74 95 q 108 95 130 73 q 152 50 152 14 q 152 -33 116 -74 q 81 -116 12 -149 z"},"n":{"x_min":0,"x_max":496,"ha":496,"o":"m 76 0 l 3 0 l 97 359 l 23 359 l 23 380 q 74 380 111 382 q 147 385 178 390 l 153 296 q 186 343 223 366 q 260 390 301 390 q 343 390 368 371 q 393 352 393 319 q 393 311 391 299 q 389 288 386 276 l 322 56 q 320 50 320 47 q 319 43 319 42 q 319 34 324 29 q 330 24 339 24 q 365 24 389 52 q 414 81 438 139 l 457 131 q 429 56 395 22 q 360 -12 313 -12 q 283 -12 266 2 q 249 17 249 41 q 249 49 251 60 q 253 71 256 83 l 315 288 q 318 300 319 308 q 321 316 321 321 q 321 341 311 350 q 300 360 279 360 q 235 360 192 314 q 148 268 129 198 z"},"h":{"x_min":0,"x_max":497,"ha":497,"o":"m -7 0 l 155 632 l 85 632 l 85 653 q 122 653 160 655 q 198 658 236 662 l 142 291 q 174 340 212 365 q 251 389 295 389 q 335 389 357 370 q 379 352 379 317 q 379 307 377 297 q 376 287 373 277 l 316 67 q 315 64 314 61 q 314 58 314 50 q 314 40 320 33 q 325 27 335 27 q 356 27 380 54 q 404 82 432 140 l 453 130 q 421 58 386 23 q 350 -12 309 -12 q 281 -12 263 3 q 244 19 244 42 q 244 49 245 56 q 246 62 248 69 l 309 298 q 311 304 311 309 q 312 315 312 322 q 312 343 303 351 q 294 359 271 359 q 229 359 183 312 q 137 265 121 203 l 69 0 z"},"z":{"x_min":0,"x_max":327,"ha":327,"o":"m -17 33 l -17 29 q -17 10 -23 0 q -29 -11 -39 -11 q -50 -11 -54 -6 q -59 -1 -59 10 q -59 21 -52 32 q -45 43 -30 58 l 227 312 q 199 309 176 308 q 152 306 133 306 q 112 306 95 310 q 78 314 62 322 l 30 266 l 11 277 l 76 391 q 124 374 164 365 q 203 357 237 357 q 243 357 250 357 q 258 358 269 359 q 271 374 277 382 q 283 389 294 389 q 301 389 305 385 q 309 380 309 372 q 309 362 297 345 q 285 329 261 305 l 34 83 q 81 79 135 58 q 188 38 200 38 q 215 38 224 43 q 233 48 233 56 q 233 64 210 70 q 187 75 187 97 q 187 110 196 118 q 205 126 219 126 q 237 126 248 111 q 259 96 259 71 q 259 35 228 11 q 198 -13 150 -13 q 127 -13 105 -9 q 83 -4 52 7 z"},"B":{"x_min":0,"x_max":601,"ha":601,"o":"m -20 0 l -20 25 l 38 25 l 196 627 l 125 627 l 125 653 l 378 653 q 471 653 518 618 q 564 583 564 512 q 564 442 511 399 q 458 355 358 343 l 358 335 q 434 321 474 281 q 513 242 513 181 q 513 97 446 48 q 379 0 262 0 z m 135 25 l 240 25 q 282 25 310 34 q 338 42 357 61 q 381 85 397 128 q 413 171 413 214 q 413 278 376 304 q 339 331 249 331 l 215 331 z m 222 357 l 302 357 q 384 357 426 402 q 468 448 468 536 q 468 590 447 609 q 426 627 352 627 l 291 627 z"},"K":{"x_min":0,"x_max":601,"ha":601,"o":"m -31 0 l -31 25 l 29 25 l 185 627 l 111 627 l 111 653 l 354 653 l 354 627 l 281 627 l 125 25 l 196 25 l 196 0 z m 210 346 l 530 627 l 447 627 l 447 653 l 630 653 l 630 627 l 567 627 l 288 384 l 504 25 l 566 25 l 566 0 l 318 0 l 318 25 l 396 25 z"},"R":{"x_min":0,"x_max":610,"ha":610,"o":"m -30 0 l -30 25 l 30 25 l 189 627 l 109 627 l 109 653 l 368 653 q 465 653 514 618 q 563 583 563 514 q 563 436 497 395 q 432 354 298 348 l 298 340 q 368 327 403 286 q 437 245 443 169 q 444 156 445 133 q 452 18 502 18 q 511 18 542 28 q 547 29 550 30 l 550 3 q 527 -7 506 -11 q 486 -16 466 -16 q 431 -16 404 -1 q 377 14 363 41 q 346 74 343 159 q 341 199 339 221 q 332 290 305 314 q 277 338 209 340 l 126 25 l 205 25 l 205 0 z m 216 366 l 261 366 q 365 366 414 412 q 463 457 463 553 q 463 593 440 610 q 417 627 355 627 l 284 627 z"},"T":{"x_min":0,"x_max":547,"ha":547,"o":"m 58 0 l 58 25 l 133 25 l 288 627 q 285 627 280 628 q 276 628 268 628 q 211 628 168 591 q 125 555 86 475 l 56 475 l 111 653 l 589 653 l 540 459 l 515 459 q 517 475 517 488 q 518 501 518 513 q 518 578 493 603 q 468 628 406 628 q 402 628 396 627 q 389 627 385 627 l 228 25 l 307 25 l 307 0 z"},"P":{"x_min":0,"x_max":601,"ha":601,"o":"m -23 0 l -23 25 l 36 25 l 193 627 l 120 627 l 120 653 l 377 653 q 477 653 531 613 q 585 573 585 500 q 585 411 509 356 q 433 301 308 301 l 203 301 l 132 25 l 204 25 l 204 0 z m 211 327 l 292 327 q 380 327 431 384 q 482 440 482 537 q 482 585 454 606 q 427 627 363 627 l 288 627 z"},"|":{"x_min":0,"x_max":500,"ha":500,"o":"m 219 764 l 281 764 l 281 -236 l 219 -236 z"},"t":{"x_min":0,"x_max":274,"ha":274,"o":"m 3 89 l 80 359 l 14 359 l 14 380 l 86 380 l 115 486 l 187 486 l 158 380 l 231 380 l 231 359 l 151 359 l 69 66 q 67 61 66 55 q 65 49 65 45 q 65 36 71 31 q 77 27 88 27 q 111 27 138 57 q 164 87 195 149 l 215 140 q 180 63 142 26 q 104 -12 62 -12 q 32 -12 14 3 q -5 19 -5 44 q -5 52 -3 63 q -1 74 3 89 z"},"M":{"x_min":0,"x_max":765,"ha":765,"o":"m -22 0 l -22 25 l 39 25 l 194 627 l 120 627 l 120 653 l 319 653 l 334 158 l 607 653 l 784 653 l 784 627 l 725 627 l 569 25 l 643 25 l 643 0 l 406 0 l 406 25 l 475 25 l 628 619 l 617 619 l 278 0 l 250 0 l 229 621 l 221 621 l 66 25 l 135 25 l 135 0 z"},"g":{"x_min":0,"x_max":496,"ha":496,"o":"m 242 368 q 200 368 170 317 q 141 266 141 192 q 141 172 156 159 q 170 146 193 146 q 219 146 236 156 q 253 166 265 187 q 280 217 290 252 q 300 288 300 310 q 300 338 285 353 q 270 368 242 368 z m 83 -4 q 53 -23 35 -51 q 18 -78 18 -106 q 18 -146 50 -167 q 81 -188 140 -188 q 219 -188 270 -156 q 321 -125 321 -78 q 321 -48 303 -36 q 285 -23 236 -20 l 191 -17 l 185 -17 q 107 -12 83 -4 z m 102 163 q 86 181 79 199 q 72 217 72 238 q 72 298 121 344 q 169 389 234 389 q 281 389 312 370 q 342 352 361 312 q 376 358 393 378 q 410 399 433 399 q 450 399 460 389 q 471 379 471 364 q 471 348 462 338 q 453 328 438 328 q 426 328 417 335 q 407 343 405 343 q 392 343 382 301 q 376 279 372 266 q 348 190 308 157 q 268 123 204 123 q 178 123 157 129 q 136 135 119 147 q 94 136 81 123 q 67 109 67 96 q 67 80 86 72 q 104 63 146 61 l 248 55 q 305 51 333 26 q 360 1 360 -47 q 360 -120 295 -167 q 230 -215 128 -215 q 49 -215 2 -186 q -44 -156 -44 -107 q -44 -74 -21 -49 q 2 -23 59 3 q 35 6 21 21 q 7 36 7 58 q 7 87 31 114 q 56 141 102 163 z"},"j":{"x_min":0,"x_max":221,"ha":221,"o":"m 121 592 q 121 611 134 625 q 147 638 167 638 q 187 638 200 625 q 214 611 214 592 q 214 573 200 559 q 186 545 167 545 q 147 545 134 559 q 121 572 121 592 z m 8 15 l 90 359 l 16 359 l 16 380 q 62 380 100 382 q 138 384 170 389 l 81 27 q 49 -104 6 -162 q -36 -219 -100 -219 q -132 -219 -152 -204 q -172 -189 -172 -166 q -172 -145 -161 -133 q -150 -121 -131 -121 q -116 -121 -104 -132 q -93 -143 -93 -156 q -93 -164 -95 -172 q -97 -181 -97 -182 q -97 -188 -93 -191 q -88 -194 -80 -194 q -60 -194 -39 -145 q -19 -97 8 15 z"},"i":{"x_min":0,"x_max":280,"ha":280,"o":"m 134 592 q 134 611 147 625 q 161 638 181 638 q 201 638 214 625 q 227 611 227 592 q 227 572 214 559 q 200 545 181 545 q 162 545 148 559 q 134 572 134 592 z m 28 95 l 98 359 l 25 359 l 25 380 q 68 380 107 382 q 146 384 180 389 l 89 61 q 88 56 87 53 q 87 50 87 48 q 87 39 94 32 q 101 26 111 26 q 135 26 162 56 q 190 87 213 140 l 233 131 q 209 66 168 27 q 126 -12 81 -12 q 53 -12 36 4 q 19 20 19 47 q 19 55 21 66 q 23 78 28 95 z"},"y":{"x_min":0,"x_max":441,"ha":441,"o":"m 170 -16 q 166 21 159 85 q 129 352 94 352 q 77 352 58 323 q 39 294 16 234 l -3 242 q 21 315 53 352 q 84 389 122 389 q 190 389 218 165 q 223 127 226 106 l 324 317 q 342 357 357 373 q 371 388 389 388 q 408 388 418 380 q 428 371 428 356 q 428 342 419 333 q 410 324 395 324 q 385 324 377 330 q 369 336 368 336 q 362 336 356 330 q 351 323 344 309 l 185 -38 q 146 -123 100 -168 q 53 -214 5 -214 q -17 -214 -30 -204 q -42 -195 -42 -178 q -42 -162 -32 -153 q -23 -143 -7 -143 q 12 -143 25 -157 q 38 -172 46 -172 q 69 -172 104 -129 q 139 -86 170 -16 z"},"@":{"x_min":0,"x_max":986,"ha":986,"o":"m 581 164 q 551 112 513 87 q 476 61 430 61 q 369 61 332 106 q 295 151 295 225 q 295 278 319 331 q 343 383 386 425 q 418 456 457 474 q 495 491 532 491 q 575 491 602 467 q 629 443 640 396 l 666 484 l 736 484 l 653 186 q 653 185 652 184 q 644 155 644 133 q 644 110 656 96 q 669 83 690 83 q 707 83 729 92 q 750 100 770 115 q 830 159 861 228 q 893 297 893 382 q 893 450 869 505 q 844 560 794 604 q 750 643 688 664 q 627 685 558 685 q 467 685 391 656 q 316 628 257 571 q 193 509 161 427 q 128 346 128 247 q 128 162 156 98 q 184 35 244 -16 q 300 -63 372 -88 q 443 -112 528 -112 q 607 -112 683 -86 q 758 -61 827 -11 l 842 -29 q 770 -83 689 -110 q 608 -137 522 -137 q 431 -137 355 -115 q 279 -92 221 -47 q 147 8 109 87 q 71 166 71 262 q 71 362 113 448 q 155 535 235 601 q 299 655 377 682 q 455 709 545 709 q 714 709 815 618 q 916 526 916 374 q 916 297 888 229 q 859 161 808 114 q 780 88 748 75 q 715 61 682 61 q 635 61 609 87 q 584 112 581 164 z m 536 471 q 510 471 488 456 q 466 441 443 407 q 408 354 387 293 q 366 231 366 183 q 366 138 386 111 q 406 85 439 85 q 471 85 500 107 q 530 128 557 172 q 585 218 602 271 q 618 324 618 367 q 618 413 595 442 q 572 471 536 471 z"},".":{"x_min":0,"x_max":250,"ha":250,"o":"m 20 47 q 20 72 37 88 q 53 105 78 105 q 103 105 120 88 q 137 72 137 47 q 137 22 120 5 q 103 -12 78 -12 q 53 -12 37 5 q 20 22 20 47 z"},"p":{"x_min":0,"x_max":440,"ha":440,"o":"m 235 367 q 205 367 180 344 q 155 321 134 274 q 127 258 120 238 q 114 218 108 194 l 104 180 q 86 101 86 83 q 86 50 104 29 q 122 8 151 8 q 185 8 211 31 q 237 55 258 103 q 277 149 290 202 q 302 255 302 288 q 302 327 285 347 q 268 367 235 367 z m -60 -192 l 82 359 l 9 359 l 9 380 q 52 381 88 384 q 124 386 152 389 l 134 312 q 155 350 184 369 q 213 389 248 389 q 305 389 343 346 q 381 304 381 239 q 381 196 364 151 q 348 106 318 70 q 285 31 243 8 q 201 -14 160 -14 q 126 -14 105 -2 q 84 11 72 38 l 12 -192 l 76 -192 l 76 -213 l -116 -213 l -116 -192 z"},"X":{"x_min":0,"x_max":604,"ha":604,"o":"m -43 0 l -43 25 l 14 25 l 256 325 l 173 627 l 96 627 l 96 653 l 347 653 l 347 627 l 268 627 l 329 405 l 512 627 l 432 627 l 432 653 l 610 653 l 610 627 l 547 627 l 338 373 l 433 25 l 503 25 l 503 0 l 253 0 l 253 25 l 337 25 l 264 293 l 47 25 l 133 25 l 133 0 z"},"*":{"x_min":0,"x_max":500,"ha":500,"o":"m 275 476 l 275 484 q 275 520 258 564 q 240 608 240 620 q 240 641 251 654 q 263 667 281 667 q 298 667 309 655 q 320 642 320 623 q 320 609 303 564 q 287 519 287 482 l 287 476 q 325 496 360 543 q 368 553 371 557 q 383 571 396 578 q 408 585 422 585 q 438 585 448 574 q 459 563 459 547 q 459 531 448 519 q 438 507 418 501 q 411 499 393 497 q 334 490 293 466 q 327 445 372 438 q 417 431 420 430 q 437 424 448 411 q 459 398 459 384 q 459 368 448 357 q 436 346 419 346 q 407 346 395 354 q 382 361 369 377 q 367 380 361 387 q 329 432 286 456 l 286 448 q 286 413 303 368 q 320 324 320 312 q 320 291 309 278 q 298 265 280 265 q 263 265 252 278 q 240 290 240 309 q 240 323 257 368 q 274 413 274 450 l 274 456 q 236 437 201 389 q 193 379 190 375 q 178 361 165 354 q 152 347 138 347 q 122 347 112 358 q 101 369 101 385 q 101 401 112 413 q 123 425 143 431 q 150 433 168 435 q 227 441 268 466 q 233 487 188 494 q 142 501 141 502 q 122 508 112 520 q 101 532 101 547 q 101 563 113 575 q 124 586 141 586 q 153 586 166 578 q 179 570 192 555 q 194 552 200 545 q 232 500 275 476 z"},"Y":{"x_min":0,"x_max":547,"ha":547,"o":"m 52 0 l 52 25 l 137 25 l 204 273 l 110 627 l 49 627 l 49 653 l 287 653 l 287 627 l 204 627 l 287 313 l 507 627 l 441 627 l 441 653 l 598 653 l 598 628 l 539 628 l 303 289 l 233 25 l 319 25 l 319 0 z"},"c":{"x_min":0,"x_max":385,"ha":385,"o":"m 312 94 q 276 39 234 13 q 192 -12 137 -12 q 80 -12 41 31 q 2 74 2 138 q 2 173 16 211 q 31 248 59 285 q 97 335 143 363 q 189 390 234 390 q 280 390 309 367 q 339 344 339 309 q 339 289 327 275 q 316 262 298 262 q 279 262 269 272 q 258 282 258 300 q 258 315 273 330 q 289 344 289 350 q 289 358 274 364 q 259 370 238 370 q 210 370 185 353 q 159 336 137 303 q 111 264 94 202 q 77 141 77 88 q 77 50 95 32 q 113 13 149 13 q 190 13 227 36 q 263 60 295 107 z"},"!":{"x_min":0,"x_max":296,"ha":296,"o":"m 97 192 q 148 381 157 548 q 158 564 158 568 q 162 619 179 643 q 196 667 227 667 q 248 667 262 652 q 276 636 276 614 q 276 594 216 458 q 155 323 122 192 z m 18 46 q 18 70 34 86 q 50 102 75 102 q 99 102 115 86 q 131 70 131 46 q 131 23 114 6 q 98 -11 75 -11 q 50 -11 34 5 q 18 21 18 46 z"},"/":{"x_min":0,"x_max":272,"ha":272,"o":"m -16 -93 l 221 667 l 259 667 l 22 -93 z"},"[":{"x_min":0,"x_max":312,"ha":312,"o":"m -56 -187 l 169 653 l 380 653 l 372 627 l 230 627 l 19 -161 l 163 -161 l 156 -187 z"},"6":{"x_min":0,"x_max":500,"ha":500,"o":"m 120 284 q 104 227 96 189 q 89 150 89 120 q 89 67 115 39 q 141 11 190 11 q 223 11 251 27 q 280 43 299 72 q 324 110 342 169 q 359 229 359 277 q 359 327 337 354 q 314 381 273 381 q 231 381 193 357 q 155 333 120 284 z m 142 344 q 179 379 213 395 q 246 410 283 410 q 357 410 401 365 q 445 319 445 243 q 445 204 430 164 q 416 123 389 87 q 354 41 302 14 q 250 -13 194 -13 q 112 -13 63 43 q 14 99 14 192 q 14 278 57 364 q 101 450 179 518 q 244 575 318 607 q 392 639 467 643 l 467 618 q 351 606 266 535 q 181 464 142 344 z"},"r":{"x_min":0,"x_max":329,"ha":329,"o":"m 5 0 l 95 359 l 25 359 l 25 380 q 70 380 106 382 q 142 384 173 389 l 145 285 q 182 341 212 366 q 242 391 272 391 q 292 391 305 380 q 319 369 319 354 q 319 334 308 323 q 297 312 278 312 q 261 312 246 326 q 232 341 228 341 q 202 341 167 285 q 132 229 112 147 l 76 0 z"},"2":{"x_min":0,"x_max":500,"ha":500,"o":"m -24 44 l 131 164 q 254 259 310 337 q 366 416 366 494 q 366 546 337 575 q 307 605 255 605 q 202 605 164 577 q 125 550 125 516 q 125 505 147 500 q 160 498 166 495 q 180 489 188 479 q 195 469 195 455 q 195 437 183 426 q 170 415 150 415 q 122 415 105 434 q 88 453 88 484 q 88 543 144 587 q 199 631 280 631 q 361 631 409 591 q 457 551 457 485 q 457 419 403 351 q 349 283 226 195 l 56 73 l 274 73 q 309 73 326 82 q 343 90 351 111 l 365 147 l 392 147 l 347 0 l -24 0 z"},"{":{"x_min":0,"x_max":500,"ha":500,"o":"m 413 740 l 413 715 q 344 714 318 688 q 293 662 293 586 l 293 516 q 293 406 263 365 q 233 325 153 310 q 233 295 263 255 q 293 214 293 104 l 293 34 q 293 -42 318 -68 q 343 -93 413 -94 l 413 -119 l 408 -119 q 302 -119 263 -83 q 223 -47 223 50 l 223 154 q 223 231 194 260 q 166 290 86 296 l 86 325 q 167 333 195 361 q 223 390 223 467 l 223 571 q 223 668 263 704 q 302 740 408 740 z"},"9":{"x_min":0,"x_max":500,"ha":500,"o":"m 347 274 q 310 239 276 223 q 242 207 205 207 q 131 207 88 253 q 44 298 44 375 q 44 415 58 455 q 72 496 99 531 q 135 578 187 604 q 239 631 294 631 q 376 631 426 575 q 475 519 475 426 q 475 337 428 248 q 381 160 297 89 q 232 35 162 5 q 92 -24 29 -24 l 23 -24 l 23 2 q 137 10 222 82 q 307 153 347 274 z m 369 334 q 386 392 393 429 q 400 467 400 497 q 400 551 374 579 q 348 607 299 607 q 266 607 238 591 q 209 575 190 545 q 165 507 147 448 q 130 389 130 341 q 130 291 152 264 q 175 237 216 237 q 257 237 296 261 q 334 286 369 334 z"}," ":{"x_min":0,"x_max":250,"ha":250,"o":""},"I":{"x_min":0,"x_max":326,"ha":326,"o":"m -27 0 l -27 25 l 33 25 l 192 627 l 120 627 l 120 653 l 354 653 l 354 627 l 287 627 l 130 25 l 199 25 l 199 0 z"},"H":{"x_min":0,"x_max":657,"ha":657,"o":"m -27 0 l -27 25 l 33 25 l 192 627 l 120 627 l 120 653 l 355 653 l 355 627 l 287 627 l 215 354 l 455 354 l 526 627 l 455 627 l 455 653 l 677 653 l 677 627 l 619 627 l 464 25 l 534 25 l 534 0 l 298 0 l 298 25 l 368 25 l 447 326 l 208 326 l 130 25 l 199 25 l 199 0 z"},"4":{"x_min":0,"x_max":500,"ha":500,"o":"m 23 192 l 246 192 l 341 550 q 248 463 168 374 q 88 284 23 192 z m 128 24 l 200 24 l 237 162 l -9 162 l -9 195 q 71 301 170 411 q 269 520 384 631 l 443 631 l 327 192 l 416 192 l 433 258 l 459 258 l 417 94 l 391 94 l 408 162 l 318 162 l 282 24 l 352 24 l 352 0 l 128 0 z"},"~":{"x_min":0,"x_max":833,"ha":833,"o":"m 747 370 l 747 306 q 698 271 651 253 q 604 236 558 236 q 537 236 514 240 q 491 245 465 253 q 450 258 422 268 q 324 303 275 303 q 234 303 190 285 q 146 267 87 225 l 87 290 q 138 326 186 343 q 233 361 276 361 q 303 361 333 355 q 362 349 418 329 q 424 327 435 323 q 515 294 559 294 q 601 294 645 312 q 689 330 747 370 z"},"D":{"x_min":0,"x_max":656,"ha":656,"o":"m -25 0 l -25 25 l 34 25 l 191 627 l 118 627 l 118 653 l 347 653 q 418 653 452 645 q 486 636 513 617 q 561 583 587 528 q 613 473 613 406 q 613 319 581 238 q 549 157 491 98 q 440 46 381 23 q 321 0 235 0 z m 131 25 l 227 25 q 294 25 332 42 q 369 59 399 100 q 423 133 443 176 q 462 219 477 270 q 497 342 507 393 q 516 444 516 479 q 516 551 481 589 q 446 627 380 627 l 288 627 z"},"^":{"x_min":0,"x_max":1000,"ha":1000,"o":"m 456 714 l 543 714 l 797 438 l 752 438 l 499 651 l 245 438 l 201 438 z"},"0":{"x_min":0,"x_max":500,"ha":500,"o":"m 310 610 q 261 610 227 573 q 193 537 163 450 q 128 346 108 251 q 88 156 88 104 q 88 57 111 33 q 134 9 179 9 q 229 9 262 46 q 296 83 326 170 q 361 273 381 368 q 401 462 401 515 q 401 562 378 586 q 355 610 310 610 z m 16 183 q 16 255 35 330 q 54 404 87 466 q 132 549 188 591 q 244 633 310 633 q 387 633 430 582 q 472 531 472 437 q 472 362 454 289 q 436 215 402 152 q 358 71 301 29 q 244 -13 178 -13 q 100 -13 58 38 q 16 88 16 183 z"},"F":{"x_min":0,"x_max":546,"ha":546,"o":"m -25 0 l -25 25 l 33 25 l 188 627 l 116 627 l 116 653 l 580 653 l 539 485 l 514 485 q 517 498 518 510 q 519 521 519 532 q 519 587 492 607 q 465 627 355 627 l 283 627 l 213 355 q 217 355 223 354 q 229 354 232 354 q 291 354 326 378 q 361 403 378 456 l 405 456 l 340 203 l 314 203 q 314 208 315 216 q 318 239 318 248 q 318 291 295 309 q 273 326 217 326 l 206 326 l 128 25 l 203 25 l 203 0 z"},"`":{"x_min":0,"x_max":500,"ha":500,"o":"m 349 443 l 316 443 l 197 543 q 181 557 175 565 q 170 574 170 584 q 170 598 180 608 q 189 618 203 618 q 213 618 224 611 q 235 603 245 590 z"},"k":{"x_min":0,"x_max":438,"ha":438,"o":"m -13 0 l 151 632 l 77 632 l 77 653 q 128 654 164 656 q 200 658 231 662 l 124 244 q 135 248 145 249 q 154 251 161 251 q 170 251 191 248 q 193 247 194 247 q 214 259 243 310 q 256 333 264 345 q 278 367 298 378 q 317 389 342 389 q 365 389 380 377 q 395 365 395 348 q 395 327 385 314 q 375 302 358 302 q 343 302 334 310 q 324 319 324 331 q 324 338 326 345 q 328 353 328 353 q 328 357 326 359 q 324 361 320 361 q 299 361 270 313 q 240 265 214 240 q 244 230 260 205 q 276 179 276 141 q 276 115 272 85 q 268 56 268 53 q 268 42 273 36 q 278 30 286 30 q 305 30 329 59 q 353 87 374 137 l 391 128 q 371 66 330 28 q 290 -10 247 -10 q 222 -10 207 7 q 191 24 191 51 q 191 58 192 67 q 194 76 196 84 l 218 153 q 220 160 222 171 q 223 182 223 193 q 223 206 216 215 q 209 224 199 224 q 196 224 188 220 q 157 203 123 203 l 113 203 l 59 0 z"},"u":{"x_min":0,"x_max":497,"ha":497,"o":"m 18 359 l 18 380 q 62 380 100 382 q 139 384 172 389 l 91 78 q 88 66 88 62 q 87 57 87 54 q 87 38 97 29 q 107 20 126 20 q 178 20 219 70 q 260 120 285 212 l 330 380 l 402 380 l 322 76 q 320 68 318 60 q 317 51 317 46 q 317 35 323 29 q 329 23 340 23 q 366 23 389 51 q 413 79 437 136 l 456 128 q 435 62 398 25 q 362 -12 319 -12 q 287 -12 268 2 q 249 17 249 41 q 249 48 250 61 q 251 74 252 78 q 215 31 179 10 q 143 -12 104 -12 q 64 -12 41 6 q 18 23 18 54 q 18 60 19 68 q 21 76 23 87 l 92 359 z"},"]":{"x_min":0,"x_max":312,"ha":312,"o":"m 291 653 l 67 -187 l -145 -187 l -137 -161 l 6 -161 l 217 627 l 72 627 l 79 653 z"},"U":{"x_min":0,"x_max":656,"ha":656,"o":"m 83 237 l 185 627 l 111 627 l 111 653 l 349 653 l 349 627 l 280 627 l 168 202 q 161 175 158 157 q 155 139 155 127 q 155 75 188 44 q 221 14 278 14 q 355 14 401 59 q 447 104 476 212 l 587 627 l 518 627 l 518 653 l 673 653 l 673 627 l 615 627 l 497 193 q 468 83 412 34 q 355 -16 262 -16 q 173 -16 122 29 q 70 73 70 150 q 70 168 73 191 q 77 213 83 237 z"},"o":{"x_min":0,"x_max":437,"ha":437,"o":"m 230 370 q 196 370 172 355 q 148 341 132 311 q 123 293 114 270 q 105 247 94 206 q 83 165 77 135 q 72 106 72 85 q 72 48 90 29 q 108 10 144 10 q 178 10 205 28 q 232 46 247 79 q 271 132 284 189 q 297 246 297 294 q 297 332 280 351 q 263 370 230 370 z m -6 131 q -6 172 9 211 q 24 250 54 289 q 94 341 137 365 q 181 389 233 389 q 297 389 337 346 q 377 304 377 236 q 377 197 362 157 q 346 116 317 79 q 282 35 236 11 q 190 -12 140 -12 q 77 -12 36 29 q -6 71 -6 131 z"},"N":{"x_min":0,"x_max":648,"ha":648,"o":"m -27 0 l -27 25 l 31 25 l 189 627 l 118 627 l 118 653 l 298 653 l 462 164 l 582 627 l 512 627 l 512 653 l 667 653 l 667 627 l 610 627 l 442 -16 l 421 -16 l 214 615 l 60 25 l 129 25 l 129 0 z"},"+":{"x_min":0,"x_max":833,"ha":833,"o":"m 388 596 l 446 596 l 446 327 l 709 327 l 709 270 l 446 270 l 446 0 l 388 0 l 388 270 l 124 270 l 124 327 l 388 327 z"},"G":{"x_min":0,"x_max":603,"ha":603,"o":"m 591 207 l 528 207 q 500 97 435 40 q 371 -17 274 -17 q 166 -17 102 52 q 38 121 38 237 q 38 310 66 384 q 94 458 147 524 q 202 594 266 630 q 330 667 395 667 q 431 667 465 656 q 498 645 530 622 l 568 652 l 589 652 l 548 475 l 525 475 q 522 559 490 601 q 457 643 396 643 q 355 643 319 620 q 283 598 253 553 q 231 521 212 475 q 192 430 175 373 q 157 315 148 263 q 139 211 139 167 q 139 88 172 49 q 204 9 268 9 q 332 9 368 57 q 405 106 418 207 l 340 207 l 340 231 l 591 231 z"},"q":{"x_min":0,"x_max":438,"ha":438,"o":"m 225 368 q 200 368 179 352 q 158 335 138 301 q 128 286 117 260 q 106 235 94 200 q 81 163 74 133 q 67 104 67 86 q 67 51 84 32 q 102 13 133 13 q 160 13 184 29 q 208 45 224 74 q 253 125 272 190 q 291 254 291 294 q 291 329 273 349 q 256 368 225 368 z m 322 380 l 387 380 l 237 -192 l 300 -192 l 300 -213 l 95 -213 l 95 -192 l 166 -192 l 228 46 q 202 16 175 2 q 147 -12 116 -12 q 62 -12 27 27 q -8 66 -8 126 q -8 172 12 219 q 31 265 67 304 q 105 345 146 368 q 186 390 222 390 q 252 390 274 375 q 295 359 308 329 z"},"d":{"x_min":0,"x_max":500,"ha":500,"o":"m 236 370 q 206 370 181 351 q 156 332 135 293 q 125 275 116 250 q 107 226 99 197 q 87 156 82 129 q 76 102 76 85 q 76 50 92 31 q 108 13 140 13 q 177 13 206 40 q 236 67 256 119 q 274 166 287 221 q 299 277 299 305 q 299 337 283 354 q 267 370 236 370 z m 248 55 q 224 22 193 5 q 162 -12 127 -12 q 73 -12 36 28 q -1 69 -1 129 q -1 171 17 215 q 36 259 70 300 q 107 344 148 367 q 189 390 231 390 q 264 390 284 378 q 305 366 316 341 l 397 632 l 317 632 l 317 653 q 360 653 400 655 q 441 658 478 662 l 312 71 q 312 70 311 68 q 307 57 307 49 q 307 39 314 32 q 321 25 332 25 q 356 25 384 58 q 411 91 432 147 l 455 138 q 428 64 391 26 q 355 -12 312 -12 q 281 -12 265 4 q 248 20 248 50 z"},"1":{"x_min":0,"x_max":500,"ha":500,"o":"m 34 25 l 137 25 l 278 558 q 278 559 279 561 q 280 567 280 570 q 280 584 265 590 q 250 595 203 595 l 178 595 l 178 619 q 221 620 271 623 q 322 625 381 631 l 218 24 l 323 24 l 323 0 l 34 0 z"},"5":{"x_min":0,"x_max":500,"ha":500,"o":"m 75 330 l 155 575 q 164 601 176 611 q 188 620 215 620 l 395 620 q 427 620 442 633 q 457 645 457 645 q 461 645 463 642 q 466 639 466 634 q 466 600 436 576 q 405 553 356 553 l 172 553 l 110 366 q 139 374 166 378 q 193 382 218 382 q 309 382 363 335 q 418 288 418 209 q 418 165 397 124 q 376 83 336 49 q 299 18 255 2 q 211 -13 161 -13 q 93 -13 48 21 q 3 56 3 106 q 3 133 18 151 q 34 168 58 168 q 79 168 94 154 q 108 140 108 119 q 108 108 103 99 q 97 89 88 84 q 81 80 69 77 q 51 71 51 63 q 51 46 81 30 q 111 13 150 13 q 229 13 277 73 q 325 132 325 228 q 325 284 288 318 q 251 353 191 353 q 169 353 141 347 q 113 342 75 330 z"}}}
